<svg xmlns="http://www.w3.org/2000/svg" xmlns:xlink="http://www.w3.org/1999/xlink" x="0" y="0" version="1.1" viewBox="0 0 80 70" style="enable-background:new 0 0 80 70" xml:space="preserve"><style type="text/css">.st0{fill:#042121}</style><g id="Layer_2"><path d="M70,10H10c-1.1,0-2,0.9-2,2v46c0,1.1,0.9,2,2,2h60c1.1,0,2-0.9,2-2V12C72,10.9,71.1,10,70,10z M70,12v14H56.5 V12H70z M25.5,28H39v14H25.5V28z M23.5,42H10l0-14h13.5V42z M41,28h13.5v14H41V28z M56.5,28H70v14H56.5V28z M54.5,12v14H41V12H54.5 z M39,12v14H25.5V12H39z M10,12h13.5v14H10L10,12L10,12z M10,58l0-14h13.5v14H10z M25.5,58V44H39v14H25.5z M41,58V44h13.5v14H41z M56.5,58V44H70v14H56.5z" class="st0"/></g></svg>