<svg xmlns="http://www.w3.org/2000/svg" xmlns:xlink="http://www.w3.org/1999/xlink" x="0" y="0" version="1.1" viewBox="0 0 80 70" style="enable-background:new 0 0 80 70" xml:space="preserve"><style type="text/css">.st0{fill:#042121}</style><g id="Layer_8"><g><path d="M10.5,58.5c-0.6,0-1-0.4-1-1v-47h-2v47c0,1.7,1.3,3,3,3h61v-2H10.5z" class="st0"/><path d="M17.5,50.9c1.1,0.1,2.1-0.7,2.2-1.8c0.1-1.1-0.7-2.1-1.8-2.2s-2.1,0.7-2.2,1.8C15.6,49.9,16.4,50.8,17.5,50.9 z" class="st0"/><path d="M23.8,47.5c1.1,0.1,2.1-0.7,2.2-1.8c0.1-1.1-0.7-2.1-1.8-2.2c-1.1-0.1-2.1,0.7-2.2,1.8S22.7,47.4,23.8,47.5z" class="st0"/><path d="M20.1,43.1c1.1,0.1,2.1-0.7,2.2-1.8s-0.7-2.1-1.8-2.2c-1.1-0.1-2.1,0.7-2.2,1.8C18.2,42.1,19,43,20.1,43.1z" class="st0"/><path d="M26.5,39.6c1.1,0.1,2.1-0.7,2.2-1.8s-0.7-2.1-1.8-2.2c-1.1-0.1-2.1,0.7-2.2,1.8 C24.5,38.6,25.4,39.6,26.5,39.6z" class="st0"/><path d="M31.6,50.1c1.1,0.1,2.1-0.7,2.2-1.8s-0.7-2.1-1.8-2.2s-2.1,0.7-2.2,1.8C29.7,49,30.5,50,31.6,50.1z" class="st0"/><path d="M32.3,42.1c1.1,0.1,2.1-0.7,2.2-1.8s-0.7-2.1-1.8-2.2c-1.1-0.1-2.1,0.7-2.2,1.8C30.4,41.1,31.2,42,32.3,42.1z" class="st0"/><path d="M33.1,32.2c1.1,0.1,2.1-0.7,2.2-1.8c0.1-1.1-0.7-2.1-1.8-2.2s-2.1,0.7-2.2,1.8C31.2,31.1,32,32.1,33.1,32.2z" class="st0"/><path d="M44.7,37.2c0.1-1.1-0.7-2.1-1.8-2.2s-2.1,0.7-2.2,1.8c-0.1,1.1,0.7,2.1,1.8,2.2 C43.7,39.1,44.6,38.3,44.7,37.2z" class="st0"/><path d="M39.1,32.7c1.1,0.1,2.1-0.7,2.2-1.8c0.1-1.1-0.7-2.1-1.8-2.2s-2.1,0.7-2.2,1.8S38,32.6,39.1,32.7z" class="st0"/><path d="M38.1,44.6c-0.1,1.1,0.7,2.1,1.8,2.2c1.1,0.1,2.1-0.7,2.2-1.8c0.1-1.1-0.7-2.1-1.8-2.2 C39.1,42.7,38.2,43.5,38.1,44.6z" class="st0"/><path d="M36.6,38.5c1.1,0.1,2.1-0.7,2.2-1.8s-0.7-2.1-1.8-2.2s-2.1,0.7-2.2,1.8C34.7,37.4,35.5,38.4,36.6,38.5z" class="st0"/><path d="M43.2,31c-0.1,1.1,0.7,2.1,1.8,2.2s2.1-0.7,2.2-1.8c0.1-1.1-0.7-2.1-1.8-2.2S43.3,29.9,43.2,31z" class="st0"/><path d="M50.9,35.7c-0.1,1.1,0.7,2.1,1.8,2.2s2.1-0.7,2.2-1.8c0.1-1.1-0.7-2.1-1.8-2.2C51.9,33.7,51,34.6,50.9,35.7z" class="st0"/><path d="M49.4,29.5c-0.1,1.1,0.7,2.1,1.8,2.2c1.1,0.1,2.1-0.7,2.2-1.8s-0.7-2.1-1.8-2.2 C50.4,27.6,49.5,28.4,49.4,29.5z" class="st0"/><path d="M41.9,22.9C43,23,44,22.1,44.1,21c0.1-1.1-0.7-2.1-1.8-2.2s-2.1,0.7-2.2,1.8S40.8,22.8,41.9,22.9z" class="st0"/><path d="M49.7,25.5c1.1,0.1,2.1-0.7,2.2-1.8c0.1-1.1-0.7-2.1-1.8-2.2c-1.1-0.1-2.1,0.7-2.2,1.8 C47.8,24.5,48.6,25.4,49.7,25.5z" class="st0"/><path d="M56.3,26.1c1.1,0.1,2.1-0.7,2.2-1.8s-0.7-2.1-1.8-2.2s-2.1,0.7-2.2,1.8C54.4,25.1,55.2,26,56.3,26.1z" class="st0"/><path d="M65.2,25.6c1.1,0.1,2.1-0.7,2.2-1.8s-0.7-2.1-1.8-2.2c-1.1-0.1-2.1,0.7-2.2,1.8 C63.3,24.5,64.1,25.5,65.2,25.6z" class="st0"/><path d="M58.4,30.9C58.4,32,59.2,33,60.3,33c1.1,0.1,2.1-0.7,2.2-1.8s-0.7-2.1-1.8-2.2C59.5,29,58.5,29.8,58.4,30.9z" class="st0"/><path d="M48.2,43.5c-0.1,1.1,0.7,2.1,1.8,2.2c1.1,0.1,2.1-0.7,2.2-1.8s-0.7-2.1-1.8-2.2S48.3,42.4,48.2,43.5z" class="st0"/><path d="M57.7,20.7c1.1,0.1,2.1-0.7,2.2-1.8c0.1-1.1-0.7-2.1-1.8-2.2c-1.1-0.1-2.1,0.7-2.2,1.8S56.6,20.6,57.7,20.7z" class="st0"/></g></g></svg>