<svg xmlns="http://www.w3.org/2000/svg" xmlns:xlink="http://www.w3.org/1999/xlink" x="0" y="0" version="1.1" viewBox="0 0 80 70" style="enable-background:new 0 0 80 70" xml:space="preserve"><style type="text/css">.st0{fill:#042121}</style><g id="Layer_8"><g><path d="M11,58c-0.6,0-1-0.4-1-1V10H8v47c0,1.7,1.3,3,3,3h61v-2H11z" class="st0"/><path d="M62.7,30.9c-0.9-0.6-2.2-0.4-2.8,0.6c-0.6,0.9-0.4,2.2,0.6,2.8c0.9,0.6,2.2,0.4,2.8-0.6S63.7,31.5,62.7,30.9z" class="st0"/><path d="M64.8,37.5c-0.9-0.6-2.2-0.4-2.8,0.6c-0.6,0.9-0.4,2.2,0.6,2.8c0.9,0.6,2.2,0.4,2.8-0.6 C66,39.3,65.8,38.1,64.8,37.5z" class="st0"/><path d="M57.6,37.4c-0.9-0.6-2.2-0.4-2.8,0.6c-0.6,0.9-0.4,2.2,0.6,2.8c0.9,0.6,2.2,0.4,2.8-0.6 C58.8,39.3,58.6,38.1,57.6,37.4z" class="st0"/><path d="M58.2,25.8c-0.9-0.6-2.2-0.4-2.8,0.6s-0.4,2.2,0.6,2.8s2.2,0.4,2.8-0.6C59.4,27.7,59.1,26.4,58.2,25.8z" class="st0"/><path d="M53.8,32.4c-0.9-0.6-2.2-0.4-2.8,0.6s-0.4,2.2,0.6,2.8c0.9,0.6,2.2,0.4,2.8-0.6 C54.9,34.3,54.7,33.1,53.8,32.4z" class="st0"/><path d="M48.2,40.8c-0.9-0.6-2.2-0.4-2.8,0.6c-0.6,0.9-0.4,2.2,0.6,2.8s2.2,0.4,2.8-0.6 C49.4,42.6,49.1,41.4,48.2,40.8z" class="st0"/><path d="M40.4,30.8c-0.6,0.9-0.4,2.2,0.6,2.8s2.2,0.4,2.8-0.6c0.6-0.9,0.4-2.2-0.6-2.8C42.3,29.6,41.1,29.8,40.4,30.8 z" class="st0"/><path d="M43.2,37.4c-0.9-0.6-2.2-0.4-2.8,0.6c-0.6,0.9-0.4,2.2,0.6,2.8s2.2,0.4,2.8-0.6S44.1,38,43.2,37.4z" class="st0"/><path d="M49.9,27.5c0.6-0.9,0.4-2.2-0.6-2.8c-0.9-0.6-2.2-0.4-2.8,0.6c-0.6,0.9-0.4,2.2,0.6,2.8 C48,28.6,49.3,28.4,49.9,27.5z" class="st0"/><path d="M48.2,33.6c-0.9-0.6-2.2-0.4-2.8,0.6s-0.4,2.2,0.6,2.8s2.2,0.4,2.8-0.6C49.4,35.4,49.1,34.2,48.2,33.6z" class="st0"/><path d="M38.8,36.9c0.6-0.9,0.4-2.2-0.6-2.8c-0.9-0.6-2.2-0.4-2.8,0.6c-0.6,0.9-0.4,2.2,0.6,2.8 C36.9,38,38.2,37.8,38.8,36.9z" class="st0"/><path d="M34.4,29.1c0.6-0.9,0.4-2.2-0.6-2.8c-0.9-0.6-2.2-0.4-2.8,0.6c-0.6,0.9-0.4,2.2,0.6,2.8 C32.5,30.3,33.7,30,34.4,29.1z" class="st0"/><path d="M32.7,35.2c0.6-0.9,0.4-2.2-0.6-2.8C31.2,31.8,30,32,29.4,33c-0.6,0.9-0.4,2.2,0.6,2.8 C30.8,36.4,32.1,36.1,32.7,35.2z" class="st0"/><path d="M37,41.6c-0.9-0.6-2.2-0.4-2.8,0.6c-0.6,0.9-0.4,2.2,0.6,2.8s2.2,0.4,2.8-0.6S37.9,42.2,37,41.6z" class="st0"/><path d="M30.5,38.5c-0.9-0.6-2.2-0.4-2.8,0.6c-0.6,0.9-0.4,2.2,0.6,2.8c0.9,0.6,2.2,0.4,2.8-0.6 C31.6,40.4,31.4,39.1,30.5,38.5z" class="st0"/><path d="M25,32.8c-0.9-0.6-2.2-0.4-2.8,0.6s-0.4,2.2,0.6,2.8s2.2,0.4,2.8-0.6C26.2,34.7,25.9,33.4,25,32.8z" class="st0"/><path d="M18.9,29.9c-0.9-0.6-2.2-0.4-2.8,0.6c-0.6,0.9-0.4,2.2,0.6,2.8c0.9,0.6,2.2,0.4,2.8-0.6 C20.1,31.8,19.9,30.6,18.9,29.9z" class="st0"/><path d="M26.4,27.6c0.6-0.9,0.4-2.2-0.6-2.8c-0.9-0.6-2.2-0.4-2.8,0.6c-0.6,0.9-0.4,2.2,0.6,2.8 C24.6,28.7,25.8,28.5,26.4,27.6z" class="st0"/><path d="M41.5,25.6c0.6-0.9,0.4-2.2-0.6-2.8c-0.9-0.6-2.2-0.4-2.8,0.6s-0.4,2.2,0.6,2.8 C39.6,26.7,40.8,26.5,41.5,25.6z" class="st0"/><path d="M21.1,38.9c-0.9-0.6-2.2-0.4-2.8,0.6c-0.6,0.9-0.4,2.2,0.6,2.8c0.9,0.6,2.2,0.4,2.8-0.6 C22.2,40.7,22,39.5,21.1,38.9z" class="st0"/></g></g></svg>