<svg xmlns="http://www.w3.org/2000/svg" width="20" height="20" fill="none" viewBox="0 0 20 20"><path stroke="#042121" d="M10 14V15"/><path stroke="#042121" d="M9 14V15"/><path stroke="#042121" d="M11 14V15"/><path stroke="#042121" d="M12 14V15"/><path stroke="#042121" d="M13 13V14"/><path stroke="#042121" d="M14 12V13"/><path stroke="#042121" d="M14 11V12"/><path stroke="#042121" d="M14 10V11"/><path stroke="#042121" d="M14 9V10"/><path stroke="#042121" d="M14 8V9"/><path stroke="#042121" d="M13 7V8"/><path stroke="#042121" d="M12 6V7"/><path stroke="#042121" d="M11 6V7"/><path stroke="#042121" d="M10 6V7"/><path stroke="#042121" d="M9 6V7"/><path stroke="#042121" d="M8 6V7"/><path stroke="#042121" d="M7 7V8"/><path stroke="#042121" d="M6 8V9"/><path stroke="#042121" d="M6 9V10"/><path stroke="#042121" d="M6 10V11"/><path stroke="#042121" d="M6 11V12"/><path stroke="#042121" d="M6 12V13"/><path stroke="#042121" d="M7 13V14"/><path stroke="#042121" d="M8 14V15"/></svg>