<svg xmlns="http://www.w3.org/2000/svg" width="20" height="20" fill="none" viewBox="0 0 20 20"><path stroke="#042121" d="M4 16L3 16"/><path stroke="#042121" d="M4 17L3 17"/><path stroke="#042121" d="M3 16L2 16"/><path stroke="#042121" d="M19 16L18 16"/><path stroke="#042121" d="M3 15L2 15"/><path stroke="#042121" d="M19 15L18 15"/><path stroke="#042121" d="M5 14L4 14"/><path stroke="#042121" d="M6 12L5 12"/><path stroke="#042121" d="M7 10L6 10"/><path stroke="#042121" d="M9 6L8 6"/><path stroke="#042121" d="M8 8L7 8"/><path stroke="#042121" d="M14 8L13 8"/><path stroke="#042121" d="M15 10L14 10"/><path stroke="#042121" d="M16 12L15 12"/><path stroke="#042121" d="M17 14L16 14"/><path stroke="#042121" d="M5 13L4 13"/><path stroke="#042121" d="M6 11L5 11"/><path stroke="#042121" d="M7 9L6 9"/><path stroke="#042121" d="M8 7L7 7"/><path stroke="#042121" d="M9 5L8 5"/><path stroke="#042121" d="M14 7L13 7"/><path stroke="#042121" d="M15 9L14 9"/><path stroke="#042121" d="M16 11L15 11"/><path stroke="#042121" d="M17 13L16 13"/><path stroke="#042121" d="M18 16L17 16"/><path stroke="#042121" d="M18 15L17 15"/><path stroke="#042121" d="M4 15L3 15"/><path stroke="#042121" d="M4 14L3 14"/><path stroke="#042121" d="M5 12L4 12"/><path stroke="#042121" d="M6 10L5 10"/><path stroke="#042121" d="M7 8L6 8"/><path stroke="#042121" d="M8 6L7 6"/><path stroke="#042121" d="M10 3L9 3"/><path stroke="#042121" d="M14 6L13 6"/><path stroke="#042121" d="M13 6L12 6"/><path stroke="#042121" d="M13 5L12 5"/><path stroke="#042121" d="M12 3L11 3"/><path stroke="#042121" d="M10 4L9 4"/><path stroke="#042121" d="M12 4L11 4"/><path stroke="#042121" d="M10 5L9 5"/><path stroke="#042121" d="M11 3L10 3"/><path stroke="#042121" d="M11 3L10 3"/><path stroke="#042121" d="M11 4L10 4"/><path stroke="#042121" d="M11 8L10 8"/><path stroke="#042121" d="M11 9L10 9"/><path stroke="#042121" d="M11 10L10 10"/><path stroke="#042121" d="M11 11L10 11"/><path stroke="#042121" d="M11 12L10 12"/><path stroke="#042121" d="M11 14L10 14"/><path stroke="#042121" d="M12 5L11 5"/><path stroke="#042121" d="M15 8L14 8"/><path stroke="#042121" d="M16 10L15 10"/><path stroke="#042121" d="M17 12L16 12"/><path stroke="#042121" d="M18 14L17 14"/><path stroke="#042121" d="M5 17L4 17"/><path stroke="#042121" d="M6 17L5 17"/><path stroke="#042121" d="M7 17L6 17"/><path stroke="#042121" d="M8 17L7 17"/><path stroke="#042121" d="M9 17L8 17"/><path stroke="#042121" d="M10 17L9 17"/><path stroke="#042121" d="M11 17L10 17"/><path stroke="#042121" d="M12 17L11 17"/><path stroke="#042121" d="M13 17L12 17"/><path stroke="#042121" d="M14 17L13 17"/><path stroke="#042121" d="M15 17L14 17"/><path stroke="#042121" d="M16 17L15 17"/><path stroke="#042121" d="M17 17L16 17"/><path stroke="#042121" d="M18 17L17 17"/></svg>