<svg xmlns="http://www.w3.org/2000/svg" width="21" height="21" fill="none" viewBox="0 0 21 21"><rect width="8.433" height="1.917" x="6" y="5" stroke="#042121" rx=".767"/><path stroke="#042121" d="M14.2021 6.15002H14.4333C14.8567 6.15002 15.2 6.49328 15.2 6.9167V8.47955C15.2 8.90297 14.8567 9.24623 14.4333 9.24623H10.9832C10.5598 9.24623 10.2166 9.58948 10.2166 10.0129V11.9001"/><path stroke="#042121" d="M9.06665 12.2834C9.06665 12.0717 9.23828 11.9 9.44999 11.9H10.6C10.8117 11.9 10.9833 12.0717 10.9833 12.2834V15.7334C10.9833 16.1568 10.6401 16.5001 10.2167 16.5001H9.83333C9.4099 16.5001 9.06665 16.1568 9.06665 15.7334V12.2834Z"/></svg>