<svg xmlns="http://www.w3.org/2000/svg" xmlns:xlink="http://www.w3.org/1999/xlink" width="602pt" height="178pt" viewBox="0 0 602 178"><g id="graph0" class="graph" transform="scale(1 1) rotate(0) translate(4 174)"><title>G</title><g id="clust1" class="cluster"><title>cluster_11</title><polygon fill="transparent" stroke="transparent" points="8 -8 8 -162 336 -162 336 -8 8 -8"/><text x="59" y="-130.8" fill="#4d4d4d" font-family="Helvetica,sans-Serif" font-size="14" text-anchor="middle">Python Server</text></g><g id="clust2" class="cluster"><title>cluster_thread_1</title><polygon fill="#91a4a8" stroke="transparent" points="18 -18 18 -113 326 -113 326 -18 18 -18"/><text x="94.5" y="-89" fill="#edebdf" font-family="Helvetica,sans-Serif" font-size="10" text-anchor="middle">PerspectiveManager - Thread 1</text></g><g id="clust3" class="cluster"><title>cluster_browser</title><polygon fill="#cadee1" stroke="#cadee1" points="344 -8 344 -157 586 -157 586 -8 344 -8"/><text x="377" y="-125.8" fill="#4d4d4d" font-family="Helvetica,sans-Serif" font-size="14" text-anchor="middle">Browser</text></g><g id="clust4" class="cluster"><title>cluster_41</title><polygon fill="#fff" stroke="transparent" points="354 -18 354 -108 576 -108 576 -18 354 -18"/><text x="376" y="-88.6" fill="#4d4d4d" font-family="monospace" font-size="8" text-anchor="middle">&lt;html&gt;</text></g><g id="node1" class="node"><title>table_thread_1</title><polygon fill="#e6e2da" stroke="transparent" points="100 -68 28 -68 28 -32 100 -32 100 -68"/><text x="64" y="-48.1" font-family="monospace" font-size="8" text-anchor="middle">table(arrow)</text></g><g id="node2" class="node"><title>view_thread_1</title><polygon fill="#edebdf" stroke="transparent" points="316 -72 136 -72 136 -28 316 -28 316 -72"/><text x="144" y="-61.6" font-family="monospace" font-size="8" text-anchor="start">view({</text><text x="144" y="-52.6" font-family="monospace" font-size="8" text-anchor="start">group_by:&apos;[&quot;State&quot;]</text><text x="144" y="-43.6" font-family="monospace" font-size="8" text-anchor="start">split_by:&apos;[&quot;Segment&quot;]&apos;</text><text x="144" y="-34.6" font-family="monospace" font-size="8" text-anchor="start">})</text></g><g id="edge1" class="edge"><title>table_thread_1-&gt;view_thread_1</title><path fill="none" stroke="#edebdf" d="M100.11,-50C108.52,-50 117.91,-50 127.66,-50"/><polygon fill="#edebdf" stroke="#edebdf" points="127.91 -52.8 135.91 -50 127.91 -47.2 127.91 -52.8"/></g><g id="node3" class="node"><title>viewer4</title><polygon fill="#fff" stroke="#b3b3b3" points="566 -72 364 -72 364 -28 566 -28 566 -72"/><text x="372" y="-61.6" font-family="monospace" font-size="8" text-anchor="start">&lt;perspective-viewer</text><text x="372" y="-52.6" font-family="monospace" font-size="8" text-anchor="start">view=&quot;heatmap&quot;</text><text x="372" y="-43.6" font-family="monospace" font-size="8" text-anchor="start">row-pivots=&apos;[&quot;State&quot;]</text><text x="372" y="-34.6" font-family="monospace" font-size="8" text-anchor="start">column-pivots=&apos;[&quot;Segment&quot;]&apos;&gt;</text></g><g id="edge2" class="edge"><title>view_thread_1-&gt;viewer4</title><path fill="none" stroke="#d1a043" stroke-dasharray="5 2" stroke-width="2" d="M316.26,-50C331.75,-50 347.94,-50 363.69,-50"/></g></g></svg>