<svg xmlns="http://www.w3.org/2000/svg" xmlns:xlink="http://www.w3.org/1999/xlink" width="926pt" height="178pt" viewBox="0 0 926 178"><g id="graph0" class="graph" transform="scale(1 1) rotate(0) translate(4 174)"><title>G</title><g id="clust1" class="cluster"><title>cluster_11</title><polygon fill="transparent" stroke="transparent" points="8 -12 8 -158 336 -158 336 -12 8 -12"/><text x="59" y="-126.8" fill="#4d4d4d" font-family="Helvetica,sans-Serif" font-size="14" text-anchor="middle">Python Server</text></g><g id="clust2" class="cluster"><title>cluster_thread_2</title><polygon fill="#91a4a8" stroke="transparent" points="18 -22 18 -109 326 -109 326 -22 18 -22"/><text x="94.5" y="-85" fill="#edebdf" font-family="Helvetica,sans-Serif" font-size="10" text-anchor="middle">PerspectiveManager - Thread 2</text></g><g id="clust3" class="cluster"><title>cluster_browser</title><polygon fill="#cadee1" stroke="#cadee1" points="344 -8 344 -162 910 -162 910 -8 344 -8"/><text x="377" y="-130.8" fill="#4d4d4d" font-family="Helvetica,sans-Serif" font-size="14" text-anchor="middle">Browser</text></g><g id="clust4" class="cluster"><title>cluster_webworker2</title><polygon fill="#2d4c68" stroke="transparent" points="354 -18 354 -113 662 -113 662 -18 354 -18"/><text x="391.5" y="-89" fill="#edebdf" font-family="Helvetica,sans-Serif" font-size="10" text-anchor="middle">WebWorker 2</text></g><g id="clust6" class="cluster"><title>cluster_41</title><polygon fill="#fff" stroke="transparent" points="678 -18 678 -108 900 -108 900 -18 678 -18"/><text x="700" y="-88.6" fill="#4d4d4d" font-family="monospace" font-size="8" text-anchor="middle">&lt;html&gt;</text></g><g id="node1" class="node"><title>table_thread_2</title><polygon fill="#e6e2da" stroke="transparent" points="100 -68 28 -68 28 -32 100 -32 100 -68"/><text x="64" y="-48.1" font-family="monospace" font-size="8" text-anchor="middle">table(df)</text></g><g id="node2" class="node"><title>view_thread_2</title><polygon fill="#edebdf" stroke="transparent" points="316 -68 136 -68 136 -32 316 -32 316 -68"/><text x="144" y="-57.1" font-family="monospace" font-size="8" text-anchor="start">view({</text><text x="144" y="-48.1" font-family="monospace" font-size="8" text-anchor="start">group_by: [&quot;State&quot;]]</text><text x="144" y="-39.1" font-family="monospace" font-size="8" text-anchor="start">})</text></g><g id="edge1" class="edge"><title>table_thread_2-&gt;view_thread_2</title><path fill="none" stroke="#edebdf" d="M100.11,-50C108.52,-50 117.91,-50 127.66,-50"/><polygon fill="#edebdf" stroke="#edebdf" points="127.91 -52.8 135.91 -50 127.91 -47.2 127.91 -52.8"/></g><g id="node3" class="node"><title>table12</title><polygon fill="#e6e2da" stroke="transparent" points="436 -68 364 -68 364 -32 436 -32 436 -68"/><text x="400" y="-48.1" font-family="monospace" font-size="8" text-anchor="middle">table(...)</text></g><g id="edge3" class="edge"><title>view_thread_2-&gt;table12</title><path fill="none" stroke="#d1a043" stroke-dasharray="5 2" stroke-width="2" d="M316.02,-50C332.91,-50 349.64,-50 363.61,-50"/></g><g id="node4" class="node"><title>view12</title><polygon fill="#edebdf" stroke="transparent" points="652 -72 472 -72 472 -28 652 -28 652 -72"/><text x="480" y="-61.6" font-family="monospace" font-size="8" text-anchor="start">view({</text><text x="480" y="-52.6" font-family="monospace" font-size="8" text-anchor="start">group_by: [&quot;Category&quot;]</text><text x="480" y="-43.6" font-family="monospace" font-size="8" text-anchor="start">filter: [[&quot;State&quot;,&quot;==&quot;,&quot;Texas&quot;]]</text><text x="480" y="-34.6" font-family="monospace" font-size="8" text-anchor="start">})</text></g><g id="edge2" class="edge"><title>table12-&gt;view12</title><path fill="none" stroke="#e6e2da" d="M436.11,-50C444.52,-50 453.91,-50 463.66,-50"/><polygon fill="#e6e2da" stroke="#e6e2da" points="463.91 -52.8 471.91 -50 463.91 -47.2 463.91 -52.8"/></g><g id="node5" class="node"><title>viewer5</title><polygon fill="#fff" stroke="#b3b3b3" points="890 -72 688 -72 688 -28 890 -28 890 -72"/><text x="696" y="-61.6" font-family="monospace" font-size="8" text-anchor="start">&lt;perspective-viewer</text><text x="696" y="-52.6" font-family="monospace" font-size="8" text-anchor="start">view=&quot;heatmap&quot;</text><text x="696" y="-43.6" font-family="monospace" font-size="8" text-anchor="start">row-pivots=&apos;[&quot;State&quot;]</text><text x="696" y="-34.6" font-family="monospace" font-size="8" text-anchor="start">column-pivots=&apos;[&quot;Segment&quot;]&apos;&gt;</text></g><g id="edge4" class="edge"><title>view12-&gt;viewer5</title><path fill="none" stroke="#000" stroke-dasharray="5 2" stroke-width="2" d="M652.25,-50C663.9,-50 675.91,-50 687.73,-50"/></g></g></svg>