<svg xmlns="http://www.w3.org/2000/svg" xmlns:xlink="http://www.w3.org/1999/xlink" width="590pt" height="170pt" viewBox="0 0 590 170"><g id="graph0" class="graph" transform="scale(1 1) rotate(0) translate(4 166)"><title>G</title><g id="clust1" class="cluster"><title>cluster_browser</title><polygon fill="#cadee1" stroke="#cadee1" points="8 -8 8 -154 574 -154 574 -8 8 -8"/><text x="41" y="-122.8" fill="#4d4d4d" font-family="Helvetica,sans-Serif" font-size="14" text-anchor="middle">Browser</text></g><g id="clust2" class="cluster"><title>cluster_2</title><polygon fill="#2d4c68" stroke="transparent" points="18 -18 18 -105 326 -105 326 -18 18 -18"/><text x="55.5" y="-81" fill="#edebdf" font-family="Helvetica,sans-Serif" font-size="10" text-anchor="middle">WebWorker 1</text></g><g id="clust4" class="cluster"><title>cluster_41</title><polygon fill="#fff" stroke="transparent" points="342 -18 342 -100 564 -100 564 -18 342 -18"/><text x="364" y="-80.6" fill="#4d4d4d" font-family="monospace" font-size="8" text-anchor="middle">&lt;html&gt;</text></g><g id="node1" class="node"><title>table1</title><polygon fill="#e6e2da" stroke="transparent" points="100 -64 28 -64 28 -28 100 -28 100 -64"/><text x="64" y="-44.1" font-family="monospace" font-size="8" text-anchor="middle">table(csv)</text></g><g id="node2" class="node"><title>view2</title><polygon fill="#edebdf" stroke="transparent" points="316 -64 136 -64 136 -28 316 -28 316 -64"/><text x="144" y="-53.1" font-family="monospace" font-size="8" text-anchor="start">view({</text><text x="144" y="-44.1" font-family="monospace" font-size="8" text-anchor="start">group_by: [&quot;Sub-Category&quot;]</text><text x="144" y="-35.1" font-family="monospace" font-size="8" text-anchor="start">})</text></g><g id="edge1" class="edge"><title>table1-&gt;view2</title><path fill="none" stroke="#edebdf" d="M100.11,-46C108.52,-46 117.91,-46 127.66,-46"/><polygon fill="#edebdf" stroke="#edebdf" points="127.91 -48.8 135.91 -46 127.91 -43.2 127.91 -48.8"/></g><g id="node3" class="node"><title>viewer2</title><polygon fill="#fff" stroke="#d3d3d3" points="554 -64 352 -64 352 -28 554 -28 554 -64"/><text x="360" y="-53.1" font-family="monospace" font-size="8" text-anchor="start">&lt;perspective-viewer</text><text x="360" y="-44.1" font-family="monospace" font-size="8" text-anchor="start">view=&quot;xy_scatter&quot;</text><text x="360" y="-35.1" font-family="monospace" font-size="8" text-anchor="start">row-pivots=&apos;[&quot;Sub-Category&quot;]&apos;&gt;</text></g><g id="edge2" class="edge"><title>view2-&gt;viewer2</title><path fill="none" stroke="#000" stroke-dasharray="5 2" stroke-width="2" d="M316.25,-46C327.9,-46 339.91,-46 351.73,-46"/></g></g></svg>